<svg id="Layer_1" data-name="Layer 1" xmlns="http://www.w3.org/2000/svg" viewBox="0 0 256 256"><defs><style>.cls-1{fill:#0063b7;}.cls-2{fill:#fff;}</style></defs><title>personalizer_256x256</title><rect class="cls-1" width="256" height="256"/><path class="cls-2" d="M155.86,118.71A27.86,27.86,0,1,0,128,146.57,27.89,27.89,0,0,0,155.86,118.71ZM128,137.29a18.58,18.58,0,1,1,18.57-18.58A18.59,18.59,0,0,1,128,137.29ZM128,63a64.58,64.58,0,0,0-27.86,6.36V79.83a55.62,55.62,0,0,1,65,89.58V160.5a14,14,0,0,0-13.93-13.93H104.79A14,14,0,0,0,90.86,160.5v8.91A55.53,55.53,0,0,1,72.29,128a55,55,0,0,1,9.28-30.52v12h9.29V81.57H63v9.29H74.82A64.3,64.3,0,0,0,63,128a65,65,0,1,0,65-65ZM100.14,176.17V160.5a4.65,4.65,0,0,1,4.65-4.64h46.42a4.65,4.65,0,0,1,4.65,4.64v15.67a55.24,55.24,0,0,1-55.72,0Z"/></svg>